<svg width="60" height="60" viewBox="0 0 60 60" fill="none" xmlns="http://www.w3.org/2000/svg">
<path fill-rule="evenodd" clip-rule="evenodd" d="M20.2502 17C20.2502 14.4141 21.2774 11.9342 23.1059 10.1057C24.9344 8.27723 27.4143 7.25 30.0002 7.25C32.5861 7.25 35.066 8.27723 36.8945 10.1057C38.723 11.9342 39.7502 14.4141 39.7502 17H20.2502ZM13.7502 17C13.7502 12.6902 15.4622 8.55698 18.5097 5.50951C21.5572 2.46205 25.6904 0.75 30.0002 0.75C34.31 0.75 38.4432 2.46205 41.4907 5.50951C44.5381 8.55698 46.2502 12.6902 46.2502 17H56.0002C56.4517 17 56.8982 17.094 57.3113 17.2761C57.7244 17.4582 58.0951 17.7244 58.3996 18.0577C58.7041 18.391 58.9359 18.7841 59.0801 19.2119C59.2243 19.6397 59.2778 20.0929 59.2372 20.5425L56.5234 50.384C56.3029 52.8064 55.1848 55.059 53.3887 56.6993C51.5926 58.3397 49.2482 59.2495 46.8157 59.25H13.1847C10.7522 59.2495 8.4078 58.3397 6.61168 56.6993C4.81557 55.059 3.69748 52.8064 3.47694 50.384L0.76319 20.5425C0.722557 20.0929 0.776051 19.6397 0.920262 19.2119C1.06447 18.7841 1.29624 18.391 1.60078 18.0577C1.90532 17.7244 2.27597 17.4582 2.68908 17.2761C3.10219 17.094 3.54872 17 4.00019 17H13.7502Z" fill="#FEF0E0"/>
</svg>
