<svg width="55" height="55" viewBox="0 0 55 55" fill="none" xmlns="http://www.w3.org/2000/svg">
    <path fill-rule="evenodd" clip-rule="evenodd"
        d="M14.7124 11.0688C14.2236 10.6134 13.5772 10.3654 12.9093 10.3772C12.2414 10.389 11.6041 10.6596 11.1318 11.1319C10.6594 11.6043 10.3889 12.2415 10.3771 12.9095C10.3653 13.5774 10.6132 14.2238 11.0686 14.7125L23.8561 27.5L11.0686 40.2875C10.8153 40.5235 10.6121 40.8082 10.4712 41.1244C10.3303 41.4407 10.2546 41.782 10.2484 42.1282C10.2423 42.4744 10.306 42.8182 10.4357 43.1392C10.5654 43.4603 10.7583 43.7519 11.0032 43.9967C11.248 44.2415 11.5396 44.4345 11.8606 44.5642C12.1816 44.6938 12.5255 44.7575 12.8717 44.7514C13.2178 44.7453 13.5592 44.6695 13.8755 44.5286C14.1917 44.3877 14.4763 44.1846 14.7124 43.9313L27.4999 31.1438L40.2874 43.9313C40.5234 44.1846 40.808 44.3877 41.1243 44.5286C41.4405 44.6695 41.7819 44.7453 42.1281 44.7514C42.4742 44.7575 42.8181 44.6938 43.1391 44.5642C43.4601 44.4345 43.7517 44.2415 43.9965 43.9967C44.2414 43.7519 44.4344 43.4603 44.564 43.1392C44.6937 42.8182 44.7574 42.4744 44.7513 42.1282C44.7452 41.782 44.6694 41.4407 44.5285 41.1244C44.3876 40.8082 44.1844 40.5235 43.9311 40.2875L31.1436 27.5L43.9311 14.7125C44.3865 14.2238 44.6344 13.5774 44.6226 12.9095C44.6109 12.2415 44.3403 11.6043 43.8679 11.1319C43.3956 10.6596 42.7583 10.389 42.0904 10.3772C41.4225 10.3654 40.7761 10.6134 40.2874 11.0688L27.4999 23.8563L14.7124 11.0688Z"
        fill="#333333" />
</svg>
    