<?xml version="1.0" encoding="UTF-8"?>
<svg id="Calque_1" data-name="Calque 1" xmlns="http://www.w3.org/2000/svg" viewBox="0 0 445.46 278.36">
  <defs>
    <style>
      .cls-1 {
        fill: #dc6157;
      }

      .cls-1, .cls-2 {
        stroke-width: 0px;
      }

      .cls-2 {
        fill: #333;
      }
    </style>
  </defs>
  <ellipse class="cls-1" cx="225.99" cy="140.39" rx="40.14" ry="42.64"/>
  <g>
    <g>
      <path class="cls-2" d="M41.17,102.28c2.92-1.36,5.84-2.04,8.73-2.03,2.89,0,5.7.43,8.41,1.24,2.72.81,5.36,1.82,7.91,3,2.56,1.19,4.94,2.32,7.15,3.4s4.23,1.9,6.06,2.47c1.83.57,3.49.58,4.99.04.58-.21,1.08-.66,1.5-1.35.41-.68.4-1.66-.05-2.93-.68-1.9-1.84-3.5-3.5-4.77-1.67-1.28-3.88-2.42-6.65-3.4-2.78-.98-6.17-1.85-10.22-2.54-4.05-.7-8.8-1.3-14.17-1.84-5.08-.51-9.71-1-13.77-1.43-4.05-.43-7.66-1.15-10.81-2.18-3.14-1.03-5.95-2.57-8.4-4.63-2.45-2.06-4.64-4.95-6.55-8.7-1.72-3.37-2.56-6.84-2.47-10.42.09-3.57,1.05-7.08,2.9-10.5,1.85-3.42,4.6-6.68,8.25-9.73,3.65-3.05,8.13-5.71,13.41-7.91,6.17-2.58,12.16-4.52,17.9-5.85,5.74-1.33,11.13-2.83,16.19-4.52,3.64-1.22,6.23-2.57,7.76-4.11.43-.13.64-.2,1.07-.34.76.64,1.71,1.91,2.85,3.8,1.14,1.89,2.15,4.29,3.04,7.18,1.55,5.06,1.34,9.13-.56,12.2-1.91,3.08-5.14,5.35-9.73,6.93-2.97,1.02-5.88,1.43-8.76,1.23-2.89-.2-5.71-.74-8.46-1.62-2.76-.88-5.43-1.94-7.99-3.17-2.57-1.24-5.03-2.35-7.38-3.34-2.35-.99-4.57-1.68-6.65-2.07-2.08-.39-4.02-.2-5.79.57-.59.26-1.12.79-1.58,1.59-.46.81-.42,1.82.13,3.05.82,1.84,2.2,3.3,4.12,4.38,1.91,1.08,4.42,1.98,7.51,2.72,3.08.74,6.81,1.34,11.16,1.86,4.35.52,9.36,1.13,15.01,1.91,5.3.73,9.96,1.53,13.99,2.34,4.03.81,7.5,1.98,10.42,3.48,2.92,1.5,5.38,3.5,7.37,5.96,2,2.47,3.59,5.73,4.79,9.75,1.09,3.62,1.37,7.16.9,10.6-.47,3.44-1.61,6.65-3.4,9.66-1.79,3.01-4.25,5.7-7.37,8.12-3.12,2.42-6.84,4.44-11.19,6.11-2.55.98-5.17,1.88-7.88,2.71-2.71.83-5.39,1.69-8.05,2.56-2.66.88-5.22,1.74-7.67,2.58-2.45.84-4.68,1.75-6.69,2.71-2.82,1.35-4.78,2.83-5.87,4.42-.33.17-.5.25-.84.42-.78-.55-1.85-1.68-3.22-3.39-1.37-1.71-2.73-3.87-4.07-6.49-2.44-4.79-3.1-8.79-1.89-11.97,1.2-3.18,3.92-5.81,8.13-7.78Z"/>
      <path class="cls-2" d="M149.7,96.52c-5.98,1.11-11.35,1.64-16.17,1.53-4.82-.11-9.03-.76-12.65-1.99-3.61-1.24-6.62-3.01-9.01-5.36-2.39-2.35-4.07-5.17-5.01-8.49-3.25-11.45-6.5-22.9-9.74-34.34-2.25-7.93-4.18-13.98-5.8-18.15-1.62-4.17-3.55-6.68-5.79-7.52-.09-.29-.13-.44-.21-.73,17.14-4.8,34.3-8.83,51.79-12.15.05.3.08.45.13.75-1.62,1.74-2.23,4.85-1.83,9.31.4,4.46,1.37,10.74,2.88,18.84,1.87,10.04,3.75,20.09,5.62,30.13.9,4.8,3.01,8.35,6.28,10.72,3.27,2.37,7.51,3.12,12.83,2.34,2.92-.43,5.3-1.21,7.14-2.38,1.84-1.17,3.24-2.54,4.2-4.13.95-1.59,1.56-3.35,1.81-5.28.25-1.93.27-3.86.06-5.78-.29-2.68-1.08-5.19-2.39-7.54-1.31-2.35-2.89-4.62-4.75-6.81-1.86-2.19-3.87-4.35-6.03-6.48-2.16-2.13-4.21-4.37-6.16-6.72-1.95-2.35-3.7-4.87-5.24-7.57-1.54-2.7-2.59-5.7-3.11-9.03-.75-4.73.17-8.44,2.82-11.09,2.64-2.64,6.53-4.32,11.58-4.94,2.95-.36,5.98-.5,9.08-.39,3.1.1,5.19.33,6.28.65.03.35.05.53.08.88-.99.77-1.62,2.52-1.88,5.24-.26,2.73-.27,6.64-.02,11.73.25,5.09.73,11.44,1.44,19.06.71,7.62,1.6,16.74,2.66,27.37.34,3.43.02,6.65-.93,9.67-.95,3.02-2.67,5.72-5.13,8.13-2.46,2.41-5.72,4.48-9.78,6.26-4.06,1.78-9.06,3.17-15.03,4.27Z"/>
      <path class="cls-2" d="M201.21,62.48c3.14-.16,6.04.32,8.66,1.42,2.61,1.1,5.02,2.54,7.18,4.32,2.16,1.78,4.2,3.7,6.08,5.76,1.89,2.06,3.63,4.01,5.25,5.84,1.62,1.83,3.15,3.36,4.61,4.57,1.46,1.22,2.97,1.85,4.54,1.91.61.02,1.23-.21,1.86-.69.63-.48.98-1.39,1.04-2.73.09-2.02-.38-3.93-1.43-5.74-1.05-1.81-2.64-3.7-4.81-5.65-2.17-1.95-4.95-4.03-8.38-6.2-3.43-2.17-7.52-4.52-12.2-7.04-4.43-2.39-8.44-4.59-11.95-6.53-3.51-1.93-6.51-3.96-8.97-6.12-2.46-2.15-4.43-4.64-5.89-7.47-1.45-2.84-2.38-6.34-2.73-10.54-.31-3.77.2-7.3,1.59-10.57,1.39-3.27,3.54-6.15,6.47-8.61,2.93-2.46,6.61-4.44,11.04-5.88,4.43-1.44,9.48-2.21,15.09-2.26,6.57-.06,12.73.39,18.47,1.32,5.73.92,11.21,1.56,16.48,1.89,3.79.24,6.66-.05,8.64-.9.44.04.66.05,1.11.09.46.88.86,2.42,1.2,4.6.34,2.18.37,4.78.11,7.8-.46,5.28-2.17,8.96-5.06,11.1-2.89,2.13-6.7,3.04-11.49,2.78-3.09-.17-5.91-.88-8.47-2.15-2.56-1.27-4.94-2.83-7.12-4.68-2.19-1.85-4.23-3.83-6.11-5.95-1.88-2.11-3.71-4.07-5.48-5.87-1.77-1.8-3.54-3.28-5.28-4.43-1.74-1.15-3.57-1.7-5.46-1.65-.63.02-1.31.31-2.02.88-.72.57-1.05,1.53-1.01,2.87.07,2.02.78,3.89,2.12,5.61,1.34,1.73,3.28,3.51,5.81,5.35,2.53,1.85,5.69,3.81,9.45,5.93,3.77,2.11,8.11,4.57,12.97,7.41,4.57,2.67,8.53,5.15,11.92,7.42,3.39,2.26,6.13,4.65,8.25,7.14,2.12,2.49,3.63,5.26,4.54,8.29.91,3.04,1.15,6.65.76,10.84-.35,3.77-1.41,7.15-3.12,10.17-1.71,3.01-3.96,5.57-6.72,7.68-2.76,2.12-6.02,3.69-9.77,4.76-3.76,1.07-7.9,1.55-12.48,1.46-2.68-.05-5.41-.2-8.18-.45-2.77-.25-5.53-.47-8.26-.66-2.74-.19-5.37-.36-7.9-.51-2.53-.15-4.88-.15-7.06-.03-3.04.18-5.36.81-6.93,1.86-.36.03-.54.04-.91.07-.5-.8-1.05-2.26-1.66-4.36-.61-2.1-1.05-4.62-1.29-7.55-.45-5.36.43-9.3,2.68-11.79,2.25-2.49,5.68-3.89,10.21-4.11Z"/>
      <path class="cls-2" d="M307.51,97.07c-14.34-2.87-28.6-5.14-43.12-6.86.04-.35.05-.53.09-.88,1.71-1.26,3.01-4.07,3.91-8.46.89-4.38,1.81-10.63,2.72-18.74l3.27-28.95c.92-8.1,1.4-14.4,1.43-18.88.03-4.48-.82-7.54-2.56-9.16.04-.35.05-.53.09-.88,17.63,2.05,34.98,4.81,52.37,8.34-.07.35-.11.52-.19.86-2.17,1-3.91,3.64-5.22,7.92-1.31,4.28-2.79,10.42-4.44,18.4-.57,2.77-.86,4.15-1.43,6.92,1.19.07,2.64.25,4.34.53,1.7.28,3.51.64,5.44,1.08,2.11.48,4,.98,5.66,1.47,1.65.49,2.84.92,3.57,1.27.69-2.74,1.04-4.11,1.73-6.85,1.99-7.91,3.31-14.08,3.94-18.52.63-4.44.19-7.58-1.33-9.42.08-.34.12-.51.21-.86,17.32,4.42,34.27,9.53,51.15,15.41-.12.33-.18.5-.3.83-2.3.69-4.39,3.07-6.27,7.13-1.88,4.06-4.17,9.95-6.88,17.64-3.23,9.16-6.45,18.32-9.68,27.48-2.71,7.69-4.63,13.71-5.78,18.03-1.15,4.32-1.21,7.42-.2,9.31-.12.33-.18.5-.3.83-13.92-4.81-27.85-9.01-42.11-12.69.08-.34.12-.51.21-.86,1.87-1.02,3.54-3.63,5.02-7.86,1.47-4.22,3.22-10.29,5.21-18.2.33-1.32.5-1.98.83-3.3,1.23-4.89,1.58-8.82,1.01-11.77-.57-2.95-2.11-4.74-4.58-5.32-3.34-.78-6.55.86-9.53,4.91-2.99,4.05-5.46,9.85-6.98,17.03-1.28,6.05-1.92,11.07-2.2,14.62-.28,3.55.08,6.07,1.1,7.58-.07.35-.11.52-.19.86Z"/>
      <path class="cls-2" d="M444.31,55.72c-2.39.39-4.77,2.49-7.14,6.28-2.38,3.8-5.37,9.35-9.01,16.65-4.33,8.69-8.67,17.38-13,26.08-3.64,7.3-6.29,13.03-7.95,17.18-1.67,4.15-2.1,7.22-1.31,9.23-.16.31-.24.47-.4.79-13.37-6.56-26.82-12.51-40.67-17.97.12-.33.19-.5.31-.83,2-.77,3.99-3.16,5.97-7.17,1.98-4.01,4.46-9.82,7.4-17.42l10.53-27.17c2.95-7.61,5.01-13.57,6.17-17.9,1.16-4.33,1.1-7.51-.2-9.53.12-.33.19-.5.31-.83,16.84,6.59,33.2,13.82,49.4,21.83-.16.31-.24.47-.4.79Z"/>
    </g>
    <g>
      <path class="cls-2" d="M100.45,208.86c-2.4-.75-4.02-2.09-4.84-4-.82-1.91-1.22-4.1-1.2-6.55.02-2.46.34-5.01.94-7.67.6-2.65,1.11-5.14,1.53-7.47.42-2.33.65-4.33.69-6,.05-1.67-.48-2.7-1.59-3.09-5.43,16.81-10.87,33.63-16.3,50.44-2.45,7.57-4.14,13.49-5.05,17.77-.92,4.28-.74,7.38.54,9.29-.1.33-.15.49-.26.82-15.91-5.38-31.48-11.77-46.72-18.82.14-.32.2-.47.34-.79,2.19-.51,4.33-2.68,6.41-6.49,2.08-3.81,4.65-9.38,7.71-16.7,6.81-16.26,13.61-32.52,20.42-48.78-1.08-.49-2.14-.1-3.19,1.17-1.05,1.27-2.17,2.91-3.36,4.93-1.19,2.01-2.42,4.21-3.69,6.6-1.27,2.38-2.69,4.5-4.26,6.33-1.58,1.83-3.29,3.17-5.15,3.99-1.86.83-3.94.68-6.23-.46-3.11-1.55-4.86-4.25-5.21-8.02-.35-3.77,1.07-8.85,4.18-15.23,1.65-3.37,3.23-6.11,4.73-8.23,1.5-2.11,2.62-3.44,3.35-3.98.32.17.47.25.79.41.91.84,1.79,1.55,2.64,2.12.85.58,2.26,1.36,4.23,2.34,3.64,1.81,8.03,3.76,13.2,5.79,5.16,2.02,10.3,4.06,15.41,6.12,5.19,2.09,10.32,4.18,15.41,6.29,5.09,2.11,9.55,3.72,13.35,4.92,2.06.65,3.58,1.04,4.57,1.21.98.17,2.07.26,3.27.27.33.1.5.15.83.24.18.91.14,2.67-.11,5.28-.26,2.62-.86,5.75-1.81,9.41-1.81,6.91-4.01,11.67-6.67,14.22-2.66,2.56-5.65,3.34-8.9,2.32Z"/>
      <path class="cls-2" d="M176.96,246.81c1.65,8.38,3.24,14.8,4.63,19.23,1.39,4.43,2.93,7.43,4.58,8.98-.03.34-.04.52-.07.86-14.13-1.4-28.09-3.24-42.1-5.58-3.39-.61-6.75-1.16-10.07-1.67-3.32-.5-6.5-.99-9.53-1.46-3.03-.47-5.82-.93-8.36-1.38-2.54-.45-4.78-.92-6.7-1.42-7.31-1.88-12.54-5.07-15.62-9.32-3.08-4.26-3.53-10-1.47-17.17,1.02-3.55,2.4-6.64,4.12-9.29,1.72-2.64,3.68-5.14,5.85-7.48,2.17-2.35,4.55-4.7,7.14-7.08,2.58-2.38,5.27-5.03,8.04-7.98,2.78-2.95,5.62-6.35,8.51-10.23,2.89-3.88,5.7-8.49,8.41-13.84,7.52,1.83,13.89,2.96,19.02,3.56,5.14.61,9.52.69,13.11.34.29.05.43.07.73.11,2.66,20.39,5.92,40.61,9.78,60.81ZM121.49,223.74c.92.06,2.06.16,3.43.28,1.37.12,3.02.41,4.97.86,1.06.24,2.12.51,3.17.78,1.05.28,2.01.55,2.88.82-.68-12.6-1.12-25.22-1.31-37.83-.24-.06-.37-.09-.61-.15-2.71,5.68-5.14,11.43-7.23,17.26-2.09,5.83-3.87,11.82-5.3,17.98ZM130.75,264.83c3.36.71,5.44-1.11,6.22-5.4.38-2.1.52-4.76.44-7.96-.09-3.2-.31-6.9-.65-11.08-.09-1.33-.13-1.99-.22-3.32-.18-2.98-.66-5.18-1.45-6.61-.79-1.43-1.94-2.31-3.44-2.65-2.67-.6-4.96.1-6.91,2.12-1.95,2.02-3.37,4.91-4.23,8.67-.49,2.16-.69,4.65-.59,7.47.1,2.81.53,5.52,1.31,8.11.77,2.59,1.95,4.89,3.53,6.89,1.58,2,3.59,3.26,5.99,3.76Z"/>
      <path class="cls-2" d="M236.3,193.74c-1.44,1.44-2.29,4.33-2.55,8.7-.26,4.37-.33,10.55-.2,18.53.15,9.51.31,19.02.46,28.52.13,7.99.42,14.16.88,18.51.46,4.36,1.59,7.22,3.38,8.57,0,.35.01.52.02.86-16.37.48-32.78-.07-49.11-1.32.03-.34.04-.52.06-.86,1.86-1.26,3.15-4.05,3.87-8.37.72-4.32,1.34-10.47,1.86-18.44.62-9.49,1.24-18.97,1.86-28.46.52-7.97.73-14.14.65-18.52-.08-4.38-.81-7.32-2.18-8.83.03-.34.04-.52.06-.86,13.6,1.08,27.26,1.45,40.91,1.1,0,.35.01.52.02.86Z"/>
      <path class="cls-2" d="M361.36,257.61c-15.84,4.85-32,8.7-48.26,11.83-.06-.34-.09-.51-.15-.85,1.11-1.63,1.41-4.56.9-8.78-.51-4.21-1.74-10.32-3.64-18.33-3.13-13.04-6.2-26.1-9.2-39.17-.2.04-.3.06-.5.09.28,23.12.11,46.2-.5,69.32-7.47,1.2-11.21,1.72-18.7,2.61-10.15-23.21-19.37-46.63-27.76-70.53-.2.01-.3.02-.5.03-.14,7.35.43,13.73,1.78,19.12,1.35,5.39,2.96,10.34,4.82,14.81,1.87,4.48,3.7,8.77,5.48,12.86,1.78,4.1,2.91,8.56,3.32,13.4.42,4.92-.42,8.46-2.56,10.58-2.14,2.12-5.49,3.37-10.01,3.66-2.56.16-5.12.1-7.69-.19-2.57-.29-4.35-.64-5.34-1.01l-.03-.86c2.01-7.24,3.32-15.53,4-24.82.75-10.28,1.27-20.63,1.62-30.93.28-8.25.17-14.5-.3-18.72-.46-4.22-1.47-6.99-3.01-8.31-.02-.35-.02-.52-.04-.86,12.87-.63,25.71-1.89,38.46-3.8,3.93,11.41,8.04,22.75,12.34,34.02.21-.04.32-.05.53-.09.11-12.02.07-24.03-.12-36.05,13.04-2.39,25.96-5.45,38.69-9.16.09.33.13.5.22.83-1.07,1.77-1.24,4.74-.5,8.92.74,4.18,2.38,10.18,4.96,17.98,2.94,9.02,5.93,18.03,8.95,27.02,2.47,7.49,4.66,13.24,6.55,17.26,1.89,4.02,3.89,6.45,5.96,7.28.09.33.14.5.23.83Z"/>
      <path class="cls-2" d="M408.46,242.46c-6.5,2.74-12.49,4.46-17.87,5.26-5.38.79-10.08.75-14.06-.05-3.98-.8-7.22-2.31-9.74-4.47-2.52-2.16-4.23-4.87-5.17-8.1-3.25-11.15-6.5-22.29-9.76-33.44-2.25-7.72-4.15-13.61-5.69-17.69-1.54-4.07-3.21-6.55-5.02-7.46-.08-.28-.12-.43-.2-.71,13.32-4.11,26.25-9.08,39.14-14.38.11.27.16.41.27.69-.88,1.89-.7,4.92.55,9.1,1.25,4.18,3.31,10.02,6.19,17.5,3.58,9.28,7.15,18.56,10.73,27.85,1.71,4.43,4.44,7.4,8.25,8.83,3.82,1.43,8.47.94,13.84-1.56,2.96-1.38,5.23-2.97,6.82-4.74,1.59-1.77,2.63-3.59,3.13-5.44.5-1.85.57-3.72.23-5.6-.34-1.89-.92-3.68-1.71-5.38-1.11-2.37-2.64-4.4-4.59-6.12-1.95-1.71-4.09-3.29-6.43-4.73-2.34-1.44-4.77-2.85-7.28-4.22-2.51-1.38-4.92-2.93-7.22-4.65-2.3-1.72-4.44-3.69-6.42-5.89-1.98-2.2-3.58-4.82-4.83-7.84-1.79-4.31-1.99-7.96-.65-10.96,1.33-3,3.79-5.36,7.41-7.14,2.11-1.04,4.34-1.93,6.68-2.69,2.35-.75,3.99-1.16,4.92-1.19l.38.77c-.46.99-.31,2.75.44,5.31.76,2.55,2.1,6.11,4.05,10.66,1.94,4.56,4.5,10.2,7.67,16.92,3.17,6.72,6.99,14.76,11.47,24.12,1.45,3.02,2.17,6.12,2.15,9.3-.03,3.18-.99,6.41-2.93,9.65-1.94,3.24-4.91,6.47-8.95,9.61-4.03,3.14-9.31,6.15-15.81,8.88Z"/>
    </g>
  </g>
</svg>